<?xml version="1.0" encoding="UTF-8" standalone="no"?>
<svg xmlns="http://www.w3.org/2000/svg" height="89.1mm" width="53.59mm" version="1.1" viewBox="0 0 53.586636 89.102303">
 <defs>
  <radialGradient id="radialGradient8817" gradientUnits="userSpaceOnUse" cy="-14.29" cx="26.76" gradientTransform="matrix(1 0 0 .4347 50.19 160.2)" r="6.284">
   <stop stop-color="#f2f2f2" stop-opacity=".6902" offset="0"/>
   <stop stop-color="#fff" stop-opacity=".2701" offset="1"/>
  </radialGradient>
  <radialGradient id="radialGradient8793" gradientUnits="userSpaceOnUse" cy="22.26" cx="26.94" gradientTransform="matrix(1.006 0 0 .8906 49.67 115.8)" r="26.52">
   <stop stop-color="#fffecf" offset="0"/>
   <stop stop-color="#fef358" offset=".3671"/>
   <stop stop-color="#ffc12d" offset="1"/>
  </radialGradient>
  <linearGradient id="linearGradient8841" x1="15.18" gradientUnits="userSpaceOnUse" y1="77.12" gradientTransform="translate(50.19 109.3)" x2="38.28" y2="77.12">
   <stop stop-color="#5a5a5a" offset="0"/>
   <stop stop-color="#d9d9d9" offset=".6782"/>
   <stop stop-color="#adadad" offset="1"/>
  </linearGradient>
 </defs>
 <g transform="translate(-50.19 -109.3)">
  <path fill="url(#linearGradient8841)" d="m76.99 174.9-11.55-0.2s0.266 15.47 1.552 17.05c3.953 4.846 4.124 6.548 9.997 6.723 5.873-0.1752 6.044-1.877 9.997-6.723 1.286-1.576 1.552-17.05 1.552-17.05z" fill-rule="evenodd"/>
  <path style="paint-order:normal" d="m52.75 144.8c3.758 6.124 9.247 17.65 11.25 27.92 0.8532 4.377 12.99 3.908 12.99 3.908s12.14 0.4675 12.99-3.91c2.003-10.27 7.492-21.8 11.25-27.92 3.76-6.12 5.63-34.94-24.24-35-29.87 0.1-28 28.9-24.24 35z" stroke-opacity=".3931" fill-rule="evenodd" stroke="#ffa543" stroke-width=".9650" fill="url(#radialGradient8793)"/>
  <path d="m72.78 176.2s0.7429-18.99 0.4347-20.53c-0.3082-1.541-8.166-19.88-8.166-19.88 0.583-0.5823 1.644 0.6522 3.497-0.5299 0.9946-0.6346 2.656-1.25 3.363-0.4171 0.7883 0.9286 2.187 0.3975 3.32-0.3301 0.4681-0.5618 1.195-1.009 1.759-0.803 0.5636-0.206 1.291 0.2412 1.759 0.803 1.133 0.7276 2.532 1.259 3.32 0.3301 0.707-0.8329 2.368-0.2175 3.363 0.4171 1.853 1.182 2.914-0.0524 3.497 0.5299 0 0-7.858 18.34-8.166 19.88-0.3082 1.54 0.4347 20.53 0.4347 20.53" stroke-opacity=".1092" stroke="#000" stroke-width=".565" fill="none"/>
  <path stroke-linejoin="round" style="color-rendering:auto;color:#000000;isolation:auto;mix-blend-mode:normal;paint-order:normal;shape-rendering:auto;solid-color:#000000;image-rendering:auto" d="m77.53 156.8a6.284 2.732 0 0 1 -6.777 -2.499 6.284 2.732 0 0 1 5.748 -2.946 6.284 2.732 0 0 1 6.778 2.498 6.284 2.732 0 0 1 -5.748 2.946" stroke-opacity=".09195" fill-rule="evenodd" stroke="#f2f2f2" stroke-linecap="round" stroke-width=".565" fill="url(#radialGradient8817)"/>
 </g>
</svg>
