<?xml version="1.0" encoding="UTF-8" standalone="no"?>
<svg xmlns="http://www.w3.org/2000/svg" height="73.42mm" width="73.98mm" version="1.1" xmlns:xlink="http://www.w3.org/1999/xlink" viewBox="0 0 73.981972 73.423867">
 <defs>
  <radialGradient id="radialGradient8904" gradientUnits="userSpaceOnUse" cy="43.04" cx="44.07" gradientTransform="matrix(1 0 0 .9925 49.87 150.8)" r="36.99">
   <stop stop-color="#d9d9d9" offset="0"/>
   <stop stop-color="#c0c0c0" offset="1"/>
  </radialGradient>
 </defs>
 <g fill-rule="evenodd" transform="translate(-49.87 -149.7)" stroke="#000">
  <path d="m87.25 194.8s0.5739 0.9762 0.5656 3.196c-0.9166 0.488-1.862 0.9202-2.831 1.294-1.684-1.446-2.047-2.519-2.047-2.519l-0.9517-2.834c-1.303 0.4374-2.647 0.7372-4.012 0.8944l0.3421 2.97s0.1272 1.125-0.7833 3.15c-1.036 0.0731-2.075 0.0833-3.112 0.0308-0.9504-2.006-0.8454-3.134-0.8454-3.134l0.2832-2.976c-1.368-0.1302-2.718-0.4033-4.029-0.8148l-0.8954 2.852s-0.3414 1.08-1.997 2.559c-0.976-0.3546-1.93-0.7679-2.856-1.238-0.05229-2.219 0.5022-3.207 0.5022-3.207l1.469-2.603c-1.197-0.6753-2.319-1.474-3.349-2.383l-1.978 2.241s-0.7511 0.8475-2.865 1.526c-0.7474-0.7209-1.45-1.486-2.105-2.292 0.8549-2.049 1.763-2.725 1.763-2.725l2.401-1.781c-0.8185-1.104-1.519-2.29-2.091-3.54l-2.719 1.243s-1.031 0.4688-3.238 0.2284c-0.3896-0.9626-0.7205-1.948-0.991-2.95 1.614-1.524 2.719-1.772 2.719-1.772l2.918-0.6502c-0.2989-1.341-0.4565-2.71-0.4701-4.084l-2.989 0.0298s-1.132 0.009-3.051-1.108c0.03561-1.038 0.134-2.072 0.2947-3.098 2.094-0.7355 3.205-0.5132 3.205-0.5132l2.93 0.5927c0.2724-1.347 0.6852-2.661 1.232-3.922l-2.743-1.189s-1.038-0.4524-2.336-2.253c0.4546-0.9336 0.9654-1.839 1.529-2.711 2.212 0.18 3.137 0.8346 3.137 0.8346l2.436 1.733c0.7967-1.12 1.708-2.152 2.72-3.082l-2.022-2.202s-0.7644-0.8356-1.218-3.009c0.7951-0.668 1.63-1.287 2.5-1.854 1.948 1.064 2.526 2.038 2.526 2.038l1.52 2.574c1.183-0.6987 2.436-1.272 3.739-1.709l-0.952-2.834s-0.3584-1.074 0.1113-3.244c0.998-0.2868 2.012-0.513 3.038-0.6772 1.347 1.765 1.478 2.889 1.478 2.889l0.3417 2.97c1.365-0.1571 2.743-0.1707 4.111-0.0407l0.2828-2.976s0.1095-1.127 1.421-2.918c1.028 0.1439 2.047 0.3499 3.051 0.6169 0.5125 2.16 0.1754 3.241 0.1754 3.241l-0.8958 2.852c1.311 0.4117 2.575 0.9596 3.772 1.635l1.469-2.604s0.5585-0.9852 2.485-2.088c0.8809 0.5497 1.728 1.152 2.536 1.804-0.4103 2.182-1.158 3.032-1.158 3.032l-1.978 2.241c1.03 0.9093 1.962 1.924 2.781 3.028l2.401-1.781s0.9109-0.6728 3.119-0.8966c0.5812 0.8605 1.11 1.755 1.583 2.68-1.262 1.826-2.291 2.299-2.291 2.299l-2.719 1.243c0.5712 1.25 1.01 2.556 1.309 3.897l2.918-0.6506s1.106-0.2442 3.214 0.4497c0.1809 1.023 0.2998 2.055 0.3559 3.092-1.896 1.155-3.028 1.168-3.028 1.168l-2.989 0.0294c0.01351 1.374-0.1169 2.746-0.3892 4.092l2.93 0.5924s1.11 0.2267 2.754 1.718c-0.2506 1.008-0.562 1.999-0.9324 2.969-2.202 0.284-3.242-0.1643-3.242-0.1643l-2.743-1.189c-0.5465 1.261-1.224 2.461-2.02 3.58l2.436 1.733s0.9214 0.6584 1.817 2.69c-0.6388 0.8186-1.327 1.598-2.06 2.333-2.127-0.636-2.894-1.469-2.894-1.469l-2.022-2.202c-1.012 0.9294-2.119 1.75-3.302 2.449l1.52 2.574m33.65 10.68s1.162 0.1557 2.808 1.73c-0.1913 0.9527-0.453 1.89-0.7828 2.804-2.224 0.4935-3.298 0.0249-3.298 0.0249l-2.745-1.21c-0.5236 1.188-1.214 2.295-2.051 3.288l2.293 1.934s0.8932 0.7592 1.427 2.973c-0.676 0.698-1.403 1.345-2.174 1.936-2.137-0.787-2.788-1.762-2.788-1.762l-1.655-2.501c-1.083 0.7164-2.263 1.274-3.503 1.657l0.8836 2.866s0.341 1.122-0.4068 3.273c-0.9461 0.2217-1.907 0.3731-2.876 0.4528-1.373-1.818-1.393-2.99-1.393-2.99l-0.0399-2.999c-1.298 0.0173-2.592-0.1512-3.843-0.5002l-0.8063 2.889s-0.3195 1.128-2.112 2.534c-0.9158-0.325-1.806-0.7174-2.664-1.174-0.172-2.271 0.4447-3.268 0.4447-3.268l1.588-2.545c-1.102-0.6874-2.099-1.529-2.962-2.498l-2.24 1.994s-0.8786 0.7761-3.146 0.9897c-0.5947-0.7685-1.132-1.58-1.606-2.428 1.083-2.004 2.141-2.509 2.141-2.509l2.712-1.282c-0.555-1.174-0.9394-2.421-1.141-3.703l-2.963 0.4667s-1.159 0.1779-3.182-0.8684c-0.08483-0.968-0.09782-1.941-0.03888-2.911 1.995-1.1 3.158-0.9531 3.158-0.9531l2.974 0.3874c0.1677-1.288 0.5186-2.544 1.042-3.733l-2.745-1.209s-1.071-0.4768-2.207-2.451c0.452-0.8602 0.9671-1.686 1.541-2.47 2.273 0.1529 3.172 0.9053 3.172 0.9053l2.293 1.934c0.8371-0.9925 1.812-1.86 2.895-2.577l-1.655-2.501s-0.6432-0.9801-0.5319-3.255c0.8453-0.4793 1.725-0.8953 2.632-1.245 1.829 1.357 2.179 2.476 2.179 2.476l0.8832 2.866c1.241-0.3823 2.53-0.5853 3.828-0.6027l-0.0402-2.999s-0.0112-1.172 1.312-3.026c0.9702 0.0538 1.935 0.1794 2.887 0.3758 0.805 2.131 0.494 3.261 0.494 3.261l-0.8067 2.889c1.251 0.3492 2.445 0.8754 3.546 1.563l1.588-2.545s0.6243-0.9922 2.74-1.836c0.7871 0.5698 1.531 1.197 2.225 1.877-0.4748 2.228-1.347 3.01-1.347 3.01l-2.24 1.994c0.8632 0.9699 1.583 2.058 2.139 3.232l2.711-1.282s1.062-0.4972 3.298-0.0632c0.3541 0.9049 0.6407 1.835 0.8574 2.782-1.604 1.617-2.761 1.804-2.761 1.804l-2.963 0.4663c0.2018 1.283 0.2193 2.587 0.0517 3.875l2.974 0.387" stroke-width=".2646px" fill="url(#radialGradient8904)"/>
  <path stroke-linejoin="round" style="color-rendering:auto;color:#000000;isolation:auto;mix-blend-mode:normal;paint-order:normal;shape-rendering:auto;solid-color:#000000;image-rendering:auto" fill="#fff" stroke-linecap="round" stroke-width=".2" d="m76.22 181.3a6.042 6.042 0 0 1 -6.516 -5.528 6.042 6.042 0 0 1 5.527 -6.516 6.042 6.042 0 0 1 6.517 5.527 6.042 6.042 0 0 1 -5.526 6.517"/>
  <path stroke-linejoin="round" style="color-rendering:auto;color:#000000;isolation:auto;mix-blend-mode:normal;paint-order:normal;shape-rendering:auto;solid-color:#000000;image-rendering:auto" d="m104.8 207.8a4.446 4.446 0 0 1 -4.795 -4.067 4.446 4.446 0 0 1 4.067 -4.795 4.446 4.446 0 0 1 4.795 4.067 4.446 4.446 0 0 1 -4.067 4.796" stroke-linecap="round" stroke-width=".2" fill="#fff"/>
 </g>
</svg>
