<?xml version="1.0" encoding="UTF-8" standalone="no"?>
<svg xmlns="http://www.w3.org/2000/svg" height="56.96mm" width="83.12mm" version="1.1" xmlns:xlink="http://www.w3.org/1999/xlink" viewBox="0 0 83.118667 56.962781">
 <defs>
  <linearGradient id="linearGradient4680" y2="49.41" gradientUnits="userSpaceOnUse" x2="78.35" gradientTransform="translate(102.6 175.1)" y1="23.63" x1="55.22">
   <stop stop-color="#969696" offset="0"/>
   <stop stop-color="#161616" offset="1"/>
  </linearGradient>
  <linearGradient id="linearGradient4696" y2="31.34" gradientUnits="userSpaceOnUse" x2="40.12" gradientTransform="translate(102.6 175.1)" y1="5.473" x1="43.46">
   <stop stop-color="#e4e4e4" offset="0"/>
   <stop stop-color="#f5f5f5" offset="1"/>
  </linearGradient>
  <linearGradient id="linearGradient4688" y2="31.34" gradientUnits="userSpaceOnUse" x2="40.12" gradientTransform="translate(102.6 175.1)" y1="46.26" x1="16.65">
   <stop stop-color="#b3b3b3" offset="0"/>
   <stop stop-color="#e9e9e9" offset="1"/>
  </linearGradient>
 </defs>
 <g fill-rule="evenodd" transform="translate(-102.6 -175.1)">
  <path style="color-rendering:auto;color:#000000;isolation:auto;mix-blend-mode:normal;paint-order:normal;shape-rendering:auto;solid-color:#000000;image-rendering:auto" d="m164.3 188.5-0.4423 8.647c-37.2-17.27-51.52-18.09-59.72-8.415l-0.196-9.299c6.182-7.569 26.2-5.374 60.36 9.067z" fill="#373737"/>
  <path style="color-rendering:auto;color:#000000;isolation:auto;mix-blend-mode:normal;paint-order:normal;shape-rendering:auto;solid-color:#000000;image-rendering:auto" d="m103.9 179.4c1.009 11.51 6.296 14.22 17.32 23.78l-0.6323 12.83c-23.7-18.97-17.56-34.52-16.69-36.6z" fill="#1f1c1c"/>
  <path style="color-rendering:auto;color:#000000;isolation:auto;mix-blend-mode:normal;paint-order:normal;shape-rendering:auto;solid-color:#000000;image-rendering:auto" d="m122.1 200.6c3.913-1.029 15.99 3.6 20.26 5.288 2.227 0.8797 1.566 23.56 0.1757 25.35-2.555 3.279-18.66-6.695-20.83-8.915-1.78-1.826-2.082-21.07 0.3899-21.72z" fill="url(#linearGradient4688)"/>
  <path style="color-rendering:auto;color:#000000;isolation:auto;mix-blend-mode:normal;paint-order:normal;shape-rendering:auto;solid-color:#000000;image-rendering:auto" d="m164.3 188.5c1.911-3.605 18.57 4.544 20.06 6.502 1.779 2.331-32.56 12.52-41.02 11.79-1.976-0.169-28.77-5.233-19.43-7.296 17.48-3.86 35.31-1.426 40.38-11z" fill="url(#linearGradient4696)"/>
  <path style="color-rendering:auto;color:#000000;isolation:auto;mix-blend-mode:normal;paint-order:normal;shape-rendering:auto;solid-color:#000000;image-rendering:auto" d="m142.7 206.5c16.61-1.19 35.95-8.074 40.86-11.3 4.236-2.786 1.306 21.54-1.124 24.03-7.513 7.697-33.09 14-40.72 12.73-4.088-0.6798-3.602-25.13 0.9898-25.46z" fill="url(#linearGradient4680)"/>
 </g>
</svg>
